<?xml version="1.0" standalone="no"?>
<!DOCTYPE svg PUBLIC "-//W3C//DTD SVG 20010904//EN"
 "http://www.w3.org/TR/2001/REC-SVG-20010904/DTD/svg10.dtd">
<svg version="1.0" xmlns="http://www.w3.org/2000/svg"
 width="300.000000pt" height="67.000000pt" viewBox="0 0 300.000000 67.000000"
 preserveAspectRatio="xMidYMid meet">
<metadata>
Created by potrace 1.10, written by Peter Selinger 2001-2011
</metadata>
<g transform="translate(0.000000,67.000000) scale(0.100000,-0.100000)"
fill="#000000" stroke="none">
<path d="M1920 627 c0 -7 22 -39 49 -72 l48 -60 -48 -56 c-64 -74 -64 -89 0
-89 46 0 51 3 79 40 l29 40 32 -40 c29 -37 36 -40 81 -40 34 0 50 4 50 13 0 7
-22 39 -49 72 l-49 59 49 59 c63 76 63 87 0 87 -45 0 -52 -3 -80 -37 l-31 -38
-31 38 c-28 34 -35 37 -80 37 -33 0 -49 -4 -49 -13z m120 -42 c28 -29 31 -35
17 -41 -29 -11 -63 4 -91 41 l-27 35 34 0 c25 0 41 -9 67 -35z m144 -12 c-20
-27 -41 -52 -45 -56 -4 -5 -16 0 -28 12 l-21 21 31 35 c25 28 39 35 66 35 l35
0 -38 -47z m-83 -59 c14 -13 16 -21 8 -35 -13 -24 -31 -24 -54 1 -15 16 -15
22 -5 35 16 19 29 19 51 -1z m-52 -53 c18 -18 18 -19 -13 -55 -26 -32 -36 -37
-65 -34 l-33 3 43 53 c23 28 44 52 46 52 2 0 11 -8 22 -19z m136 -48 l35 -38
-35 -3 c-28 -3 -39 3 -64 30 -33 37 -32 48 5 48 16 0 37 -13 59 -37z"/>
<path d="M915 403 c-62 -16 -108 -81 -107 -151 1 -76 60 -132 140 -132 46 0
102 26 102 47 0 9 -10 7 -32 -7 -82 -50 -139 -5 -139 108 0 63 20 100 64 115
33 11 77 -8 93 -41 20 -40 24 -36 24 18 0 44 -2 51 -14 41 -11 -9 -25 -10 -53
-2 -40 11 -46 12 -78 4z"/>
<path d="M1130 303 c-43 -22 -49 -58 -10 -58 21 0 25 4 22 28 -3 25 0 28 20
25 16 -2 24 -10 25 -28 2 -20 -7 -31 -45 -55 -35 -22 -47 -36 -47 -54 0 -36
29 -50 64 -29 25 14 30 14 35 2 7 -19 50 -18 66 1 10 12 10 15 -4 15 -13 0
-16 12 -16 69 0 43 -5 72 -13 79 -25 21 -62 23 -97 5z m60 -112 c0 -29 -14
-42 -37 -34 -18 6 -16 23 4 45 23 26 33 22 33 -11z"/>
<path d="M1376 304 c-14 -7 -26 -9 -26 -3 0 5 -17 9 -37 9 -29 0 -34 -3 -25
-12 15 -15 17 -158 2 -158 -5 0 -10 -4 -10 -8 0 -5 20 -9 45 -9 25 0 45 4 45
9 0 4 -4 8 -10 8 -14 0 -13 123 2 138 28 28 38 13 38 -61 0 -40 -5 -78 -10
-83 -7 -7 4 -11 35 -11 38 0 45 3 39 16 -4 9 -9 39 -12 67 -3 38 1 55 13 67
31 32 37 20 34 -66 l-4 -82 44 -2 c32 -1 41 1 32 10 -6 6 -11 42 -11 79 0 55
-4 72 -21 89 -20 20 -48 19 -76 -3 -7 -5 -13 -5 -17 0 -10 17 -44 20 -70 6z"/>
<path d="M1681 303 c-12 -8 -21 -10 -21 -4 0 6 -17 11 -37 11 -29 0 -34 -3
-25 -12 8 -8 12 -50 12 -125 0 -96 -2 -113 -17 -122 -14 -8 -4 -10 42 -10 46
0 56 2 43 10 -13 7 -18 23 -18 51 0 33 3 39 12 30 36 -36 88 3 95 71 9 78 -39
134 -86 100z m27 -83 c3 -68 -7 -91 -33 -70 -18 15 -21 110 -3 128 23 23 33 6
36 -58z"/>
<path d="M2010 300 c-34 -34 -23 -69 30 -100 51 -30 58 -53 19 -58 -19 -2 -33
4 -48 24 l-21 27 0 -34 c0 -34 1 -34 50 -37 108 -6 122 86 19 128 -17 8 -29
20 -29 31 0 28 36 24 65 -7 l25 -27 0 32 c0 25 -4 31 -22 31 -13 0 -33 3 -45
6 -14 4 -28 -1 -43 -16z"/>
<path d="M1800 232 c3 -45 11 -86 19 -95 17 -22 49 -22 73 0 14 13 18 13 18 2
0 -9 12 -14 31 -15 22 -1 29 2 25 13 -4 8 -6 50 -6 94 l0 79 -42 0 c-34 -1
-39 -3 -25 -11 13 -8 17 -23 17 -67 0 -57 -11 -82 -37 -82 -10 0 -13 21 -13
80 l0 80 -32 0 -33 0 5 -78z"/>
</g>
</svg>
