 <svg  version="1.0" xmlns="http://www.w3.org/2000/svg"  width="300.000000pt" height="71.000000pt" viewBox="0 0 300.000000 71.000000"  preserveAspectRatio="xMidYMid meet">  <g transform="translate(0.000000,71.000000) scale(0.100000,-0.100000)" fill="#ffffff" stroke="none"> <path d="M0 355 l0 -355 1500 0 1500 0 0 355 0 355 -380 0 c-247 0 -380 -4 -380 -10 0 -5 6 -10 14 -10 7 0 19 -7 26 -15 9 -11 8 -20 -6 -45 -10 -16 -21 -30 -24 -30 -3 0 -14 -15 -24 -34 l-18 -34 43 -61 c23 -33 40 -63 37 -67 -4 -3 -29 25 -56 62 l-50 68 42 56 c22 30 44 56 49 58 10 5 9 22 -2 22 -5 0 -18 -15 -29 -33 -11 -17 -32 -49 -47 -69 l-27 -37 41 -52 c22 -28 41 -60 41 -70 0 -11 7 -19 17 -19 19 0 10 -12 -15 -19 -9 -2 -40 -4 -69 -4 -29 0 -50 -4 -47 -9 13 -20 14 -62 3 -69 -9 -5 -10 -11 -2 -21 6 -7 14 -28 16 -47 5 -30 1 -39 -30 -69 -33 -31 -41 -33 -77 -28 -22 4 -47 12 -55 19 -12 10 -13 9 -7 -1 6 -10 -5 -13 -51 -12 -32 0 -68 0 -81 0 -13 0 -33 7 -45 15 -27 19 -29 19 -53 -2 -10 -10 -26 -18 -34 -18 -10 0 -15 -10 -15 -33 0 -42 -19 -54 -74 -48 -54 5 -74 26 -60 63 9 24 8 25 -21 21 -16 -3 -30 -1 -30 2 0 4 -17 5 -37 3 -21 -2 -42 -4 -48 -4 -81 5 -166 3 -188 -2 -17 -5 -38 -2 -56 8 -19 9 -31 11 -33 4 -5 -14 -40 -18 -55 -5 -7 6 -19 17 -28 24 -8 7 -13 19 -9 25 3 7 -5 0 -18 -15 -26 -30 -72 -51 -97 -44 -9 3 -29 7 -45 10 -33 6 -88 41 -105 67 -10 17 -22 65 -24 99 -3 38 18 83 54 117 54 51 98 66 155 52 24 -6 50 -9 58 -6 19 8 46 -34 46 -70 -1 -61 -53 -82 -75 -31 -13 31 -56 35 -79 9 -27 -29 -33 -113 -12 -146 20 -30 34 -31 81 -5 20 11 44 20 54 20 26 0 31 9 19 35 -6 13 -8 35 -4 50 12 47 119 74 158 38 17 -15 19 -15 36 0 20 18 158 23 178 6 8 -7 14 -6 19 1 10 15 71 12 85 -5 12 -14 15 -14 30 0 22 20 138 21 167 0 18 -13 22 -13 33 0 14 17 80 21 80 5 0 -7 7 -7 21 0 11 6 18 17 16 23 -5 13 44 107 55 107 15 0 29 40 19 53 -6 6 -24 28 -41 48 -31 38 -39 76 -18 97 9 9 -202 12 -950 12 l-962 0 0 -355z"/> <path d="M2020 696 c14 -7 36 -11 49 -9 13 2 27 0 30 -6 3 -5 16 -1 30 10 l23 19 -78 0 c-72 0 -77 -2 -54 -14z"/> <path d="M1920 667 c0 -7 22 -39 49 -72 l48 -60 -48 -58 c-63 -76 -63 -87 0 -87 46 0 51 3 79 40 l29 40 32 -40 c29 -37 36 -40 81 -40 34 0 50 4 50 13 0 6 -23 39 -50 71 l-49 59 50 61 c27 33 49 66 49 73 0 9 -16 13 -47 13 -43 0 -51 -4 -80 -37 l-33 -38 -31 38 c-28 34 -35 37 -80 37 -33 0 -49 -4 -49 -13z m118 -40 c35 -36 33 -47 -9 -47 -20 0 -36 11 -59 40 l-32 40 34 0 c25 0 42 -8 66 -33z m163 6 c-12 -16 -32 -41 -45 -57 l-24 -28 -21 21 -21 21 31 35 c24 27 39 35 66 35 l34 0 -20 -27z m-161 -73 c0 -5 -4 -10 -10 -10 -5 0 -10 5 -10 10 0 6 5 10 10 10 6 0 10 -4 10 -10z m65 -10 c17 -19 17 -22 3 -36 -30 -30 -84 10 -57 42 16 19 33 17 54 -6z m-35 -71 c0 -3 -15 -20 -34 -38 -26 -25 -40 -32 -65 -29 l-31 3 42 52 c41 50 42 51 65 35 12 -10 23 -19 23 -23z m70 31 c0 -5 -4 -10 -10 -10 -5 0 -10 5 -10 10 0 6 5 10 10 10 6 0 10 -4 10 -10z m45 -57 l35 -38 -36 -3 c-31 -3 -41 2 -64 30 -31 37 -30 48 6 48 16 0 37 -13 59 -37z"/> <path d="M2005 620 c10 -11 20 -20 22 -20 2 0 -1 9 -7 20 -6 11 -16 20 -22 20 -6 0 -3 -9 7 -20z"/> <path d="M2135 614 c-16 -25 -16 -25 3 -15 11 6 22 17 26 26 9 24 -10 17 -29 -11z"/> <path d="M2023 468 c-20 -26 -26 -41 -15 -34 12 7 36 46 29 46 -3 0 -9 -6 -14 -12z"/> <path d="M2064 655 c10 -8 23 -12 28 -9 14 9 -2 24 -25 24 -21 -1 -21 -1 -3 -15z"/> <path d="M905 435 c-107 -38 -134 -170 -50 -244 30 -26 44 -31 86 -31 53 0 103 20 112 45 8 20 2 19 -33 -7 -36 -26 -86 -26 -113 1 -22 21 -35 109 -23 156 10 39 42 65 79 65 36 0 77 -24 77 -45 0 -8 5 -17 10 -20 6 -4 10 14 10 46 0 44 -2 50 -15 39 -13 -11 -28 -10 -85 5 -8 2 -33 -2 -55 -10z"/> <path d="M2058 408 c-17 -17 -17 -18 6 -18 13 0 26 6 29 14 9 22 -16 25 -35 4z"/> <path d="M2023 349 c-24 -9 -39 -48 -29 -74 3 -8 26 -27 51 -43 48 -29 57 -47 26 -57 -26 -8 -50 4 -66 34 l-14 26 -1 -36 c0 -39 1 -39 78 -41 30 0 62 29 62 58 0 23 -45 68 -81 79 -24 8 -22 38 3 43 10 2 29 -9 43 -24 l25 -27 0 39 c0 28 -3 35 -11 27 -7 -7 -21 -8 -38 -3 -14 4 -36 4 -48 -1z"/> <path d="M1112 334 c-38 -27 -20 -74 23 -58 18 7 19 26 4 41 -8 8 -5 13 11 18 15 5 26 2 31 -6 18 -28 9 -49 -29 -68 -49 -25 -64 -44 -60 -73 4 -27 50 -37 74 -17 11 9 18 9 26 1 17 -17 53 -15 68 4 11 12 11 15 -1 12 -11 -2 -15 13 -17 67 -2 38 -8 75 -14 82 -15 18 -89 16 -116 -3z m78 -104 c0 -33 -24 -50 -42 -32 -8 8 -6 18 6 36 22 35 36 33 36 -4z"/> <path d="M1288 338 c16 -16 16 -150 0 -166 -9 -9 -1 -12 37 -12 38 0 46 3 37 12 -7 7 -12 39 -12 75 0 51 3 64 19 72 10 6 21 7 25 4 11 -12 6 -139 -6 -151 -9 -9 -2 -12 33 -12 l45 0 -4 70 c-4 67 6 100 29 100 15 0 11 -158 -3 -163 -7 -3 12 -6 42 -6 42 -1 51 2 42 11 -7 7 -12 41 -12 83 0 42 -5 76 -12 83 -17 17 -58 15 -80 -4 -16 -16 -18 -16 -24 0 -7 18 -46 21 -75 6 -13 -7 -19 -7 -19 0 0 5 -17 10 -37 10 -29 0 -34 -3 -25 -12z"/> <path d="M1593 339 c15 -9 17 -26 17 -129 0 -105 -2 -120 -17 -120 -40 0 1 -12 46 -14 50 -1 66 6 36 18 -9 3 -15 18 -15 40 0 34 1 35 33 29 28 -4 37 -1 55 22 43 55 17 165 -38 165 -14 0 -31 -5 -38 -12 -9 -9 -12 -9 -12 0 0 7 -16 12 -42 12 -34 -1 -39 -3 -25 -11z m115 -87 c3 -71 0 -78 -32 -66 -20 8 -23 113 -4 132 23 23 33 5 36 -66z"/> <path d="M1800 268 c3 -46 9 -89 13 -95 11 -17 59 -17 76 -1 11 11 14 11 18 1 3 -7 21 -13 41 -13 28 0 33 3 24 12 -7 7 -12 44 -12 95 l0 83 -42 0 c-34 -1 -39 -3 -25 -11 26 -15 25 -134 -2 -148 -10 -6 -21 -7 -25 -4 -3 3 -6 42 -6 85 l0 78 -32 0 -33 0 5 -82z"/> </g> </svg> 